<svg width="7" height="10" viewBox="0 0 7 10" fill="none" xmlns="http://www.w3.org/2000/svg">
<path d="M6.13477 2.34961C6.13477 2.88477 5.97266 3.33984 5.64844 3.71484C5.32422 4.08984 4.86914 4.34766 4.2832 4.48828V4.52344C4.97461 4.60938 5.49805 4.82031 5.85352 5.15625C6.20898 5.48828 6.38672 5.9375 6.38672 6.50391C6.38672 7.32812 6.08789 7.9707 5.49023 8.43164C4.89258 8.88867 4.03906 9.11719 2.92969 9.11719C2 9.11719 1.17578 8.96289 0.457031 8.6543V7.11328C0.789062 7.28125 1.1543 7.41797 1.55273 7.52344C1.95117 7.62891 2.3457 7.68164 2.73633 7.68164C3.33398 7.68164 3.77539 7.58008 4.06055 7.37695C4.3457 7.17383 4.48828 6.84766 4.48828 6.39844C4.48828 5.99609 4.32422 5.71094 3.99609 5.54297C3.66797 5.375 3.14453 5.29102 2.42578 5.29102H1.77539V3.90234H2.4375C3.10156 3.90234 3.58594 3.81641 3.89062 3.64453C4.19922 3.46875 4.35352 3.16992 4.35352 2.74805C4.35352 2.09961 3.94727 1.77539 3.13477 1.77539C2.85352 1.77539 2.56641 1.82227 2.27344 1.91602C1.98438 2.00977 1.66211 2.17188 1.30664 2.40234L0.46875 1.1543C1.25 0.591797 2.18164 0.310547 3.26367 0.310547C4.15039 0.310547 4.84961 0.490234 5.36133 0.849609C5.87695 1.20898 6.13477 1.70898 6.13477 2.34961Z" fill="white"/>
</svg>
